# xmcd
#
# Track frame offsets:
#	150
#	17696
#	33386
#	51145
#	65082
#	83647
#	102169
#	116711
#	129940
#	144502
#	161512
#	178451
#	193723
#	209113
#
# Disc length: 3025 seconds
#
# Revision: 2
# Processed by: cddbd v1.4PL0 Copyright (c) Steve Scherf et al.
# Submitted via: CDmax 1.9
#
DISCID=cb0bcf0e
DTITLE=Collin Raye - The Best Of Collin Raye - Direct Hits
DYEAR=1900
DGENRE=Country
TTITLE0=Love Me
TTITLE1=I Think About You
TTITLE2=Not That Different
TTITLE3=That's My Story
TTITLE4=If I Were You
TTITLE5=On Boy, One Girl
TTITLE6=In This Life
TTITLE7=My Kind Of Girl
TTITLE8=That Was A River
TTITLE9=What The Heart Wants
TTITLE10=The Gift
TTITLE11=Open Arms
TTITLE12=Little Red Rodeo
TTITLE13=Love, Me
EXTD=
EXTT0=
EXTT1=
EXTT2=
EXTT3=
EXTT4=
EXTT5=
EXTT6=
EXTT7=
EXTT8=
EXTT9=
EXTT10=
EXTT11=
EXTT12=
EXTT13=
PLAYORDER=
